<svg id="Layer_1" data-name="Layer 1" xmlns="http://www.w3.org/2000/svg" viewBox="0 0 638 638"><defs><style>.cls-1{fill:#96e6a1;}.cls-2{fill:#fff;}</style></defs><title>travelil-logo</title><path class="cls-1" d="M819,500c0,319,0,319-319,319-176.18,0-319-142.82-319-319S323.82,181,500,181,819,323.82,819,500Z" transform="translate(-181 -181)"/><path class="cls-2" d="M706.5,500c0,206.5,0,206.5-206.5,206.5C386,706.5,293.5,614,293.5,500S386,293.5,500,293.5,706.5,386,706.5,500Z" transform="translate(-181 -181)"/><path class="cls-1" d="M639.75,500c0,139.75,0,139.75-139.75,139.75A139.75,139.75,0,1,1,639.75,500Z" transform="translate(-181 -181)"/><path class="cls-2" d="M565.5,500c0,65.5,0,65.5-65.5,65.5A65.5,65.5,0,1,1,565.5,500Z" transform="translate(-181 -181)"/></svg>